<svg width="44" height="27" viewBox="0 0 44 27" fill="none" xmlns="http://www.w3.org/2000/svg">
<path d="M8.18196 26.0453C6.80648 26.0453 5.54003 25.6843 4.38261 24.9622C3.23357 24.2401 2.31099 23.1444 1.61486 21.6751C0.927123 20.2057 0.583252 18.3543 0.583252 16.1209C0.583252 13.7867 0.943897 11.8892 1.66519 10.4282C2.39486 8.96725 3.33422 7.89672 4.48325 7.21662C5.64067 6.53652 6.8568 6.19647 8.13164 6.19647C9.08777 6.19647 9.92648 6.3644 10.6478 6.70025C11.3691 7.02771 11.9729 7.46851 12.4594 8.02267C12.9458 8.56843 13.3149 9.16877 13.5665 9.82368H13.6671V0H20.6116V25.7934H13.7174V22.6196H13.5665C13.2981 23.2746 12.9123 23.8623 12.4091 24.3829C11.9142 24.895 11.3103 25.3023 10.5974 25.6045C9.89293 25.8984 9.08777 26.0453 8.18196 26.0453ZM10.7484 20.7053C11.3858 20.7053 11.931 20.5206 12.3839 20.1511C12.8452 19.7733 13.1974 19.2443 13.4407 18.5642C13.6923 17.8757 13.8181 17.0613 13.8181 16.1209C13.8181 15.1637 13.6923 14.3451 13.4407 13.665C13.1974 12.9765 12.8452 12.4517 12.3839 12.0907C11.931 11.7212 11.3858 11.5365 10.7484 11.5365C10.111 11.5365 9.56583 11.7212 9.11293 12.0907C8.66841 12.4517 8.32454 12.9765 8.08132 13.665C7.84648 14.3451 7.72906 15.1637 7.72906 16.1209C7.72906 17.0781 7.84648 17.9009 8.08132 18.5894C8.32454 19.2695 8.66841 19.7943 9.11293 20.1637C9.56583 20.5248 10.111 20.7053 10.7484 20.7053Z" fill="#5E60CE"/>
<path d="M33.3307 26.1461C31.2339 26.1461 29.4391 25.7305 27.9462 24.8992C26.4533 24.0596 25.3084 22.8925 24.5116 21.398C23.7149 19.895 23.3165 18.1528 23.3165 16.1713C23.3165 14.1898 23.7149 12.4517 24.5116 10.9572C25.3084 9.45424 26.4533 8.28715 27.9462 7.45592C29.4391 6.61629 31.2339 6.19647 33.3307 6.19647C35.4274 6.19647 37.2223 6.61629 38.7152 7.45592C40.2081 8.28715 41.3529 9.45424 42.1497 10.9572C42.9465 12.4517 43.3449 14.1898 43.3449 16.1713C43.3449 18.1528 42.9465 19.895 42.1497 21.398C41.3529 22.8925 40.2081 24.0596 38.7152 24.8992C37.2223 25.7305 35.4274 26.1461 33.3307 26.1461ZM33.381 21.0076C33.9681 21.0076 34.4755 20.8102 34.9032 20.4156C35.331 20.021 35.6623 19.4584 35.8971 18.728C36.132 17.9975 36.2494 17.1285 36.2494 16.1209C36.2494 15.105 36.132 14.2359 35.8971 13.5139C35.6623 12.7834 35.331 12.2208 34.9032 11.8262C34.4755 11.4316 33.9681 11.2343 33.381 11.2343C32.7603 11.2343 32.2278 11.4316 31.7832 11.8262C31.3387 12.2208 30.9991 12.7834 30.7642 13.5139C30.5294 14.2359 30.412 15.105 30.412 16.1209C30.412 17.1285 30.5294 17.9975 30.7642 18.728C30.9991 19.4584 31.3387 20.021 31.7832 20.4156C32.2278 20.8102 32.7603 21.0076 33.381 21.0076Z" fill="#5E60CE"/>
</svg>
