<svg width="44" height="31" viewBox="0 0 44 31" fill="none" xmlns="http://www.w3.org/2000/svg">
<g filter="url(#filter0_d_401_259)">
<path d="M17.3982 5.44836V10.4861H4.66663V5.44836H17.3982ZM7.13243 0.813599H14.0769V18.5718C14.0769 18.8405 14.1231 19.0672 14.2153 19.2519C14.3076 19.4282 14.4502 19.5625 14.6431 19.6549C14.836 19.7389 15.0834 19.7809 15.3853 19.7809C15.595 19.7809 15.8382 19.7557 16.115 19.7053C16.4002 19.6549 16.6098 19.6129 16.744 19.5793L17.7505 24.466C17.4402 24.5583 16.9957 24.6717 16.4169 24.806C15.8466 24.9404 15.1673 25.0285 14.3789 25.0705C12.7853 25.1545 11.4476 24.9908 10.3657 24.5793C9.28372 24.1595 8.47017 23.5004 7.92501 22.602C7.37985 21.7036 7.11566 20.5785 7.13243 19.2267V0.813599Z" fill="#4EA8DE"/>
<path d="M29.3341 25.1461C27.2373 25.1461 25.4425 24.7305 23.9496 23.8992C22.4567 23.0596 21.3119 21.8925 20.5151 20.398C19.7183 18.895 19.3199 17.1528 19.3199 15.1713C19.3199 13.1898 19.7183 11.4517 20.5151 9.95717C21.3119 8.45424 22.4567 7.28715 23.9496 6.45591C25.4425 5.61629 27.2373 5.19647 29.3341 5.19647C31.4309 5.19647 33.2257 5.61629 34.7186 6.45591C36.2115 7.28715 37.3564 8.45424 38.1532 9.95717C38.9499 11.4517 39.3483 13.1898 39.3483 15.1713C39.3483 17.1528 38.9499 18.895 38.1532 20.398C37.3564 21.8925 36.2115 23.0596 34.7186 23.8992C33.2257 24.7305 31.4309 25.1461 29.3341 25.1461ZM29.3844 20.0076C29.9715 20.0076 30.479 19.8102 30.9067 19.4156C31.3344 19.021 31.6657 18.4584 31.9006 17.728C32.1354 16.9975 32.2528 16.1285 32.2528 15.1209C32.2528 14.1049 32.1354 13.2359 31.9006 12.5139C31.6657 11.7834 31.3344 11.2208 30.9067 10.8262C30.479 10.4316 29.9715 10.2343 29.3844 10.2343C28.7638 10.2343 28.2312 10.4316 27.7867 10.8262C27.3422 11.2208 27.0025 11.7834 26.7677 12.5139C26.5328 13.2359 26.4154 14.1049 26.4154 15.1209C26.4154 16.1285 26.5328 16.9975 26.7677 17.728C27.0025 18.4584 27.3422 19.021 27.7867 19.4156C28.2312 19.8102 28.7638 20.0076 29.3844 20.0076Z" fill="#4EA8DE"/>
</g>
<defs>
<filter id="filter0_d_401_259" x="0.666626" y="0.813599" width="42.6816" height="32.3325" filterUnits="userSpaceOnUse" color-interpolation-filters="sRGB">
<feFlood flood-opacity="0" result="BackgroundImageFix"/>
<feColorMatrix in="SourceAlpha" type="matrix" values="0 0 0 0 0 0 0 0 0 0 0 0 0 0 0 0 0 0 127 0" result="hardAlpha"/>
<feOffset dy="4"/>
<feGaussianBlur stdDeviation="2"/>
<feComposite in2="hardAlpha" operator="out"/>
<feColorMatrix type="matrix" values="0 0 0 0 0 0 0 0 0 0 0 0 0 0 0 0 0 0 0.25 0"/>
<feBlend mode="normal" in2="BackgroundImageFix" result="effect1_dropShadow_401_259"/>
<feBlend mode="normal" in="SourceGraphic" in2="effect1_dropShadow_401_259" result="shape"/>
</filter>
</defs>
</svg>
